<svg width="48" height="48" viewBox="0 0 48 48" fill="currentColor" xmlns="http://www.w3.org/2000/svg">
<g clip-path="url(#clip0_794_98)">
<path d="M19.5 16.2798H19.4597L16.98 24.6198H22.0603L19.5 16.2798ZM19.5 16.2798H19.4597L16.98 24.6198H22.0603L19.5 16.2798ZM39.4997 0.600098H8.50031C3.79969 0.600098 0 4.39979 0 9.10041V38.8998C0 43.6004 3.79969 47.4001 8.50031 47.4001H39.4997C44.2003 47.4001 48 43.6004 48 38.8998V9.10041C48 4.39979 44.2003 0.600098 39.4997 0.600098ZM29.4 33.6601H25.2197C25.08 33.6798 24.9403 33.5804 24.9 33.4398L23.2603 28.6801H15.8203L14.2997 33.3798C14.2603 33.5598 14.1 33.6798 13.92 33.6601H10.1597C9.94031 33.6601 9.88031 33.5401 9.94031 33.3001L16.38 14.7601C16.44 14.5604 16.5 14.3401 16.5797 14.1001C16.6603 13.6801 16.6997 13.2404 16.6997 12.7998C16.68 12.7004 16.7597 12.6001 16.86 12.5804H22.0397C22.2 12.5804 22.2797 12.6404 22.3003 12.7398L29.5997 33.3404C29.6597 33.5598 29.5997 33.6601 29.4 33.6601ZM36.1997 33.3601C36.1997 33.5804 36.12 33.6798 35.94 33.6798H32.0203C31.8197 33.6798 31.7203 33.5598 31.7203 33.3601V17.9598C31.7203 17.7601 31.8 17.6804 31.98 17.6804H35.94C36.12 17.6804 36.1997 17.7798 36.1997 17.9598V33.3601ZM35.7797 15.3001C35.3203 15.7801 34.6397 16.0398 33.96 16.0004C33.3 16.0201 32.6597 15.7604 32.1797 15.3001C31.7203 14.8004 31.4803 14.1404 31.5 13.4598C31.4803 12.7801 31.74 12.1398 32.22 11.6804C32.7 11.2201 33.3403 10.9801 34.0003 10.9801C34.7803 10.9801 35.3803 11.2201 35.82 11.6804C36.2597 12.1604 36.4997 12.7998 36.48 13.4598C36.4997 14.1404 36.2597 14.8004 35.7797 15.3001ZM19.4597 16.2798L16.98 24.6198H22.0603L19.5 16.2798H19.4597Z" fill="currentColor"/>
</g>
<defs>
<clipPath id="clip0_794_98">
<rect width="48" height="48" fill="currentColor"/>
</clipPath>
</defs>
</svg>
