<svg width="48" height="48" viewBox="0 0 48 48" fill="currentColor" xmlns="http://www.w3.org/2000/svg">
<g clip-path="url(#clip0_794_113)">
<path d="M1.537 48.0001C1.13824 48.0001 0.74731 47.8435 0.45849 47.5525C0.0798569 47.1738 -0.0729381 46.6242 0.0574966 46.1054L2.92296 34.604C2.99004 34.3353 3.12867 34.089 3.32395 33.8937L35.5812 1.63649C37.7628 -0.545496 41.3144 -0.545496 43.4963 1.63649L46.3741 4.51425C48.5561 6.69624 48.5561 10.2478 46.3741 12.4294L14.1172 44.6866C13.9216 44.8819 13.6753 45.0224 13.4069 45.0876L1.90557 47.9531C1.78333 47.9859 1.6611 48.0001 1.537 48.0001ZM5.7806 35.7519L3.63141 44.3773L12.2569 42.2281L44.2167 10.2701C45.208 9.27884 45.208 7.66294 44.2167 6.67164L41.339 3.79388C40.3458 2.80071 38.7295 2.80258 37.7404 3.79388L5.7806 35.7519Z" fill="currentColor"/>
<path d="M40.3318 17.8411C39.9409 17.8411 39.5499 17.6924 39.2529 17.3936L30.6174 8.75991C30.0208 8.16326 30.0208 7.19655 30.6174 6.60028C31.2137 6.00401 32.1804 6.00401 32.7767 6.60028L41.4126 15.2362C42.0088 15.8324 42.0088 16.7992 41.4126 17.3954C41.1111 17.6924 40.7205 17.8411 40.3318 17.8411Z" fill="currentColor"/>
<path d="M13.0386 45.1344C12.6476 45.1344 12.2571 44.9857 11.9601 44.6864L3.32416 36.0509C2.72788 35.4543 2.72788 34.4876 3.32416 33.8913C3.92043 33.295 4.88714 33.295 5.48378 33.8913L14.1193 42.5272C14.7156 43.1235 14.7156 44.0902 14.1193 44.6864C13.8201 44.9857 13.4295 45.1344 13.0386 45.1344Z" fill="currentColor"/>
</g>
<defs>
<clipPath id="clip0_794_113">
<rect width="48" height="48" fill="currentColor"/>
</clipPath>
</defs>
</svg>
