<svg width="24" height="24" viewBox="0 0 24 24" fill="currentColor" xmlns="http://www.w3.org/2000/svg">
<g clip-path="url(#clip0_853_166)">
<path fill-rule="evenodd" clip-rule="evenodd" d="M12.0056 1.1348C13.4441 1.1348 14.8819 1.1333 16.3204 1.13555C17.2384 1.13705 18.1399 1.2518 19.0136 1.53755C20.9899 2.1833 22.1636 3.56255 22.6174 5.5628C22.7501 6.1553 22.8446 6.7688 22.8491 7.3733C22.8724 10.4813 22.8701 13.5893 22.8521 16.6973C22.8454 17.7083 22.6459 18.6938 22.2296 19.6245C21.4924 21.2753 20.1791 22.2068 18.4586 22.6223C17.7026 22.803 16.9346 22.8705 16.1599 22.8698C13.3226 22.8683 10.4846 22.869 7.64664 22.8653C6.74514 22.8645 5.85789 22.7475 4.99764 22.4693C3.02214 21.8258 1.84239 20.4503 1.38789 18.4508C1.24914 17.844 1.15689 17.2148 1.15239 16.5938C1.12989 13.5008 1.13364 10.4085 1.15089 7.31555C1.15389 6.30455 1.35039 5.3183 1.76589 4.38755C2.50464 2.7278 3.82239 1.79105 5.55414 1.3778C6.36264 1.1843 7.18614 1.1288 8.01564 1.13105C9.34464 1.13405 10.6759 1.1318 12.0049 1.1318C12.0056 1.1318 12.0056 1.13405 12.0056 1.1348ZM21.3799 12.0008H21.3829C21.3829 10.6478 21.4031 9.2933 21.3739 7.94105C21.3581 7.26455 21.3079 6.5783 21.1721 5.9168C20.8639 4.40255 19.9781 3.3503 18.4624 2.92805C17.8729 2.76455 17.2481 2.6468 16.6391 2.6408C13.7006 2.6093 10.7621 2.6093 7.82364 2.6273C7.19439 2.63105 6.55539 2.69855 5.93814 2.8223C4.34064 3.14555 3.28464 4.09655 2.88114 5.6933C2.74239 6.23555 2.64189 6.8033 2.63739 7.3613C2.61414 10.4153 2.61564 13.4708 2.63214 16.524C2.63514 17.0453 2.71239 17.5733 2.82264 18.0848C3.14664 19.5863 4.00839 20.6423 5.51439 21.0645C6.11214 21.2318 6.74364 21.3533 7.36089 21.3608C10.3061 21.393 13.2529 21.3908 16.1981 21.3743C16.8191 21.3705 17.4514 21.3038 18.0596 21.1793C19.7074 20.8433 20.7716 19.8503 21.1429 18.1958C21.2794 17.589 21.3551 16.9598 21.3686 16.3373C21.4024 14.8935 21.3799 13.4468 21.3799 12.0008Z" fill="currentColor" stroke="currentColor"/>
<path fill-rule="evenodd" clip-rule="evenodd" d="M11.898 15.1125C11.484 15.12 11.0715 14.9363 10.7332 14.6093C9.49874 13.4168 8.27174 12.2175 7.04624 11.016C6.72899 10.7048 6.71999 10.2578 7.00799 9.95701C7.30274 9.64876 7.75874 9.64501 8.08424 9.96151C9.23174 11.0753 10.377 12.1943 11.5222 13.3118C11.5432 13.3328 11.5672 13.356 11.5882 13.377C11.9302 13.707 11.9842 13.71 12.321 13.3823C13.4767 12.2543 14.6325 11.1248 15.7867 9.99376C16.0147 9.77101 16.2705 9.66376 16.5847 9.76501C17.0955 9.92851 17.2732 10.5398 16.926 10.9478C16.8255 11.0655 16.7092 11.169 16.5982 11.277C15.4762 12.3735 14.3542 13.4708 13.23 14.5658C12.8805 14.907 12.468 15.1125 11.898 15.1125Z" fill="currentColor" stroke="currentColor"/>
</g>
<defs>
<clipPath id="clip0_853_166">
<rect width="24" height="24" fill="currentColor"/>
</clipPath>
</defs>
</svg>
