<svg width="40" height="40" viewBox="0 0 40 40" fill="currentColor" xmlns="http://www.w3.org/2000/svg">
<g clip-path="url(#clip0_758_194)">
<path d="M40 0H0V40H40V0Z" fill="white"/>
<path d="M10.1352 13.8491C9.92647 13.9836 9.7082 14.0509 9.4804 14.0509C9.25267 14.0509 9.0344 13.974 8.8256 13.8202L8.45553 13.532C8.1898 13.3398 8.05693 13.1283 8.05693 12.8977C8.05693 12.6286 8.2088 12.398 8.51247 12.2058L15.8577 7.5353C16.0664 7.40076 16.2847 7.3335 16.5125 7.3335C16.7402 7.3335 16.9585 7.41036 17.1673 7.56416L17.5373 7.85243C17.6323 7.9293 17.7177 8.00623 17.7936 8.0831H25.1957C25.7461 8.0831 26.0213 8.2945 26.0213 8.71736C26.0213 8.8903 25.9834 9.0537 25.9075 9.20743L23.516 14.3392H30.0641C30.6904 14.3392 31.0035 14.6563 31.0035 15.2906V25.6117C31.0035 26.246 30.6904 26.5631 30.0641 26.5631H28.2989C28.0712 26.5631 27.8814 26.515 27.7295 26.419H13.5231C13.3713 26.515 13.1815 26.5631 12.9537 26.5631H11.1886C10.5623 26.5631 10.2491 26.246 10.2491 25.6117V15.06C10.2491 14.4257 10.5623 14.1086 11.1886 14.1086H12.9537C13.2385 14.1086 13.4662 14.1854 13.637 14.3392H19.9573C19.9573 14.1662 19.9953 14.0028 20.0712 13.8491L21.9787 9.8129H17.1388C16.949 9.8129 16.7877 9.78403 16.6548 9.72636L10.1352 13.8491ZM18.8185 16.1555V16.069H13.8933V19.4133H18.8185V16.1555ZM22.4626 16.1555V19.4133H27.3594V16.069H22.4626V16.1555ZM18.8185 24.6027V21.1431H13.8933V24.6892H18.8185V24.6027ZM22.4626 24.6027V24.6892H27.3594V21.1431H22.4626V24.6027ZM11.5018 31.9255C11.3309 32.5021 10.9609 32.7424 10.3915 32.6462L8.76867 32.3868C8.2562 32.3291 8 32.0696 8 31.6084C8 31.5507 8 31.493 8 31.4354C8.019 31.3777 8.03793 31.32 8.05693 31.2624L9.11033 27.8028C9.28113 27.2262 9.65127 26.986 10.2207 27.082L11.8434 27.3415C12.3559 27.3992 12.6121 27.6586 12.6121 28.1199C12.6121 28.1776 12.6026 28.2352 12.5836 28.2929C12.5836 28.3506 12.5741 28.4082 12.5551 28.4659L11.5018 31.9255ZM31.9715 31.3489C31.9905 31.4066 32 31.493 32 31.6084C32 32.0888 31.7248 32.358 31.1744 32.4156L29.4662 32.5886C28.8778 32.6462 28.5267 32.3772 28.4128 31.7814L27.7865 28.5524C27.7675 28.4947 27.758 28.4082 27.758 28.2929C27.758 27.8124 28.0332 27.5433 28.5836 27.4857L30.2918 27.3127C30.8802 27.255 31.2313 27.5241 31.3452 28.1199L31.9715 31.3489ZM19.5018 31.4354C19.5397 31.7429 19.4733 31.9832 19.3025 32.1561C19.1507 32.3483 18.9229 32.454 18.6192 32.4732L16.8541 32.5598C16.2467 32.5982 15.9146 32.3003 15.8577 31.666L15.5445 28.4659C15.5255 28.1584 15.5919 27.9181 15.7438 27.7452C15.8956 27.553 16.1234 27.4472 16.4271 27.428L18.1922 27.3415C18.7995 27.3031 19.1317 27.601 19.1886 28.2352L19.5018 31.4354ZM25.9644 31.3777C25.9834 31.4354 25.9929 31.5122 25.9929 31.6084C25.9929 32.1081 25.7082 32.3868 25.1388 32.4444L23.4306 32.5886C22.8422 32.6462 22.5006 32.3676 22.4057 31.7525L21.8648 28.6389C21.8458 28.5812 21.8363 28.5043 21.8363 28.4082C21.8363 27.9085 22.121 27.6298 22.6904 27.5722L24.3986 27.428C24.9869 27.3704 25.3286 27.649 25.4235 28.2641L25.9644 31.3777Z" fill="black"/>
</g>
<defs>
<clipPath id="clip0_758_194">
<rect width="40" height="40" fill="white"/>
</clipPath>
</defs>
</svg>
