<svg width="25" height="24" viewBox="0 0 25 24" fill="currentColor" xmlns="http://www.w3.org/2000/svg">
<g clip-path="url(#clip0_823_277)">
<path d="M24.5 5.22107C24.5 4.00325 23.5092 3.01245 22.2914 3.01245H2.70862C1.49104 3.0125 0.500422 4.00283 0.5 5.22144V5.22182V18.7781C0.5 20.0111 1.50088 20.9874 2.70937 20.9874H22.2906C23.5236 20.9874 24.5 19.9866 24.5 18.7781V5.22182C24.5 5.22173 24.5 5.22163 24.5 5.22154C24.5 5.2214 24.5 5.22126 24.5 5.22107ZM2.70862 4.41875H22.2914C22.7338 4.41875 23.0937 4.77871 23.0937 5.22224C23.0937 5.45793 22.9766 5.6767 22.7802 5.80757L12.9455 12.3643C12.6749 12.5447 12.3252 12.5448 12.0545 12.3643C12.0545 12.3643 2.21962 5.80743 2.2198 5.80757C2.21985 5.80762 2.21966 5.80748 2.21962 5.80743C2.0234 5.6767 1.90626 5.45793 1.90626 5.22107C1.90626 4.77866 2.26621 4.41875 2.70862 4.41875ZM22.2906 19.5812H2.70937C2.2716 19.5812 1.90626 19.2272 1.90626 18.7781V7.28869L11.2744 13.5343C11.6467 13.7825 12.0733 13.9066 12.5 13.9066C12.9267 13.9066 13.3534 13.7825 13.7256 13.5343L23.0937 7.28869V18.7781C23.0937 19.2158 22.7398 19.5812 22.2906 19.5812Z" fill="currentColor"/>
</g>
<defs>
<clipPath id="clip0_823_277">
<rect width="24" height="24" fill="currentColor" transform="translate(0.5)"/>
</clipPath>
</defs>
</svg>
