<svg width="24" height="24" viewBox="0 0 24 24" fill="currentColor" xmlns="http://www.w3.org/2000/svg">
<path fill-rule="evenodd" clip-rule="evenodd" d="M8.50326 2.09623C7.78433 2.09623 7.09483 2.38182 6.58645 2.89019C6.07813 3.39855 5.79251 4.08805 5.79251 4.80698C5.79251 5.52591 6.07813 6.21541 6.58645 6.72373C7.09483 7.23211 7.78433 7.51772 8.50326 7.51772H11.214V2.09623H8.50326ZM5.3086 1.61233C6.15591 0.765055 7.30504 0.289062 8.50326 0.289062H12.1176C12.6166 0.289062 13.0212 0.693612 13.0212 1.19264V8.42131C13.0212 8.92031 12.6166 9.32489 12.1176 9.32489H8.50326C7.30504 9.32489 6.15591 8.84889 5.3086 8.00164C4.46134 7.15433 3.98535 6.0052 3.98535 4.80698C3.98535 3.60876 4.46134 2.4596 5.3086 1.61233Z" fill="currentColor"/>
<path fill-rule="evenodd" clip-rule="evenodd" d="M11.2144 1.19264C11.2144 0.693612 11.6189 0.289062 12.1179 0.289062H15.7323C16.3256 0.289062 16.9131 0.405924 17.4612 0.632967C18.0093 0.860016 18.5074 1.1928 18.9269 1.61233C19.3464 2.03186 19.6792 2.52991 19.9063 3.07806C20.1333 3.62617 20.2502 4.21365 20.2502 4.80698C20.2502 5.40025 20.1333 5.98774 19.9063 6.5359C19.6792 7.08406 19.3464 7.58209 18.9269 8.00164C18.5074 8.42113 18.0093 8.75394 17.4612 8.98098C16.9131 9.20801 16.3256 9.32489 15.7323 9.32489H12.1179C11.6189 9.32489 11.2144 8.92031 11.2144 8.42131V1.19264ZM13.0215 2.09623V7.51772H15.7323C16.0883 7.51772 16.4407 7.44758 16.7696 7.31139C17.0985 7.17514 17.3973 6.97546 17.6491 6.72373C17.9007 6.47206 18.1004 6.1732 18.2367 5.84432C18.3729 5.51545 18.443 5.16298 18.443 4.80698C18.443 4.45098 18.3729 4.09852 18.2367 3.76964C18.1004 3.44071 17.9007 3.1419 17.6491 2.89019C17.3973 2.63847 17.0985 2.4388 16.7696 2.30257C16.4407 2.16634 16.0883 2.09623 15.7323 2.09623H13.0215Z" fill="currentColor"/>
<path fill-rule="evenodd" clip-rule="evenodd" d="M15.7323 9.32498C15.3763 9.32498 15.0238 9.39507 14.6949 9.53132C14.366 9.66757 14.0672 9.86719 13.8155 10.1189C13.5638 10.3707 13.3641 10.6695 13.2279 10.9984C13.0916 11.3273 13.0215 11.6797 13.0215 12.0357C13.0215 12.3917 13.0916 12.7442 13.2279 13.0731C13.3641 13.4019 13.5638 13.7008 13.8155 13.9525C14.0672 14.2042 14.366 14.4039 14.6949 14.5401C15.0238 14.6763 15.3763 14.7465 15.7323 14.7465C16.0883 14.7465 16.4407 14.6763 16.7696 14.5401C17.0985 14.4039 17.3973 14.2042 17.6491 13.9525C17.9007 13.7008 18.1004 13.4019 18.2367 13.0731C18.3729 12.7442 18.443 12.3917 18.443 12.0357C18.443 11.6797 18.3729 11.3273 18.2367 10.9984C18.1004 10.6695 17.9007 10.3707 17.6491 10.1189C17.3973 9.86719 17.0985 9.66757 16.7696 9.53132C16.4407 9.39507 16.0883 9.32498 15.7323 9.32498ZM14.0033 7.86173C14.5514 7.6347 15.1389 7.51782 15.7323 7.51782C16.3256 7.51782 16.9131 7.6347 17.4612 7.86173C18.0093 8.08877 18.5074 8.42158 18.9269 8.84107C19.3464 9.26062 19.6792 9.75865 19.9063 10.3068C20.1333 10.8549 20.2502 11.4424 20.2502 12.0357C20.2502 12.629 20.1333 13.2165 19.9063 13.7646C19.6792 14.3128 19.3464 14.8108 18.9269 15.2304C18.5074 15.6499 18.0093 15.9827 17.4612 16.2097C16.9131 16.4368 16.3256 16.5536 15.7323 16.5536C15.1389 16.5536 14.5514 16.4368 14.0033 16.2097C13.4552 15.9827 12.9572 15.6499 12.5376 15.2304C12.1181 14.8108 11.7853 14.3128 11.5583 13.7646C11.3312 13.2165 11.2144 12.629 11.2144 12.0357C11.2144 11.4424 11.3312 10.8549 11.5583 10.3068C11.7853 9.75865 12.1181 9.26062 12.5376 8.84107C12.9572 8.42158 13.4552 8.08877 14.0033 7.86173Z" fill="currentColor"/>
<path fill-rule="evenodd" clip-rule="evenodd" d="M8.50326 16.5535C7.78433 16.5535 7.09483 16.8391 6.58645 17.3474C6.07813 17.8558 5.79251 18.5453 5.79251 19.2642C5.79251 19.9832 6.07813 20.6727 6.58645 21.181C7.09483 21.6894 7.78433 21.975 8.50326 21.975C9.22219 21.975 9.91169 21.6894 10.4201 21.181C10.9284 20.6727 11.214 19.9832 11.214 19.2642V16.5535H8.50326ZM5.3086 16.0696C6.15591 15.2223 7.30504 14.7463 8.50326 14.7463H12.1176C12.6166 14.7463 13.0212 15.1509 13.0212 15.6499V19.2642C13.0212 20.4625 12.5452 21.6116 11.6979 22.4589C10.8506 23.3062 9.70148 23.7821 8.50326 23.7821C7.30504 23.7821 6.15591 23.3062 5.3086 22.4589C4.46134 21.6116 3.98535 20.4625 3.98535 19.2642C3.98535 18.066 4.46134 16.9168 5.3086 16.0696Z" fill="currentColor"/>
<path fill-rule="evenodd" clip-rule="evenodd" d="M8.50326 9.32498C7.78433 9.32498 7.09483 9.61055 6.58645 10.1189C6.07813 10.6273 5.79251 11.3168 5.79251 12.0357C5.79251 12.7547 6.07813 13.4442 6.58645 13.9525C7.09483 14.4609 7.78433 14.7465 8.50326 14.7465H11.214V9.32498H8.50326ZM5.3086 8.84107C6.15591 7.99381 7.30504 7.51782 8.50326 7.51782H12.1176C12.6166 7.51782 13.0212 7.92234 13.0212 8.4214V15.6501C13.0212 16.1491 12.6166 16.5536 12.1176 16.5536H8.50326C7.30504 16.5536 6.15591 16.0776 5.3086 15.2304C4.46134 14.3831 3.98535 13.2339 3.98535 12.0357C3.98535 10.8375 4.46134 9.68832 5.3086 8.84107Z" fill="currentColor"/>
</svg>
