<svg width="48" height="48" viewBox="0 0 48 48" fill="currentColor" xmlns="http://www.w3.org/2000/svg">
<path fill-rule="evenodd" clip-rule="evenodd" d="M17.0065 4.19245C15.5687 4.19245 14.1897 4.76364 13.1729 5.78037C12.1563 6.7971 11.585 8.1761 11.585 9.61396C11.585 11.0518 12.1563 12.4308 13.1729 13.4475C14.1897 14.4642 15.5687 15.0354 17.0065 15.0354H22.428V4.19245H17.0065ZM10.6172 3.22466C12.3118 1.53011 14.6101 0.578125 17.0065 0.578125H24.2352C25.2332 0.578125 26.0423 1.38722 26.0423 2.38529V16.8426C26.0423 17.8406 25.2332 18.6498 24.2352 18.6498H17.0065C14.6101 18.6498 12.3118 17.6978 10.6172 16.0033C8.92269 14.3087 7.9707 12.0104 7.9707 9.61396C7.9707 7.21752 8.92269 4.9192 10.6172 3.22466Z" fill="currentColor"/>
<path fill-rule="evenodd" clip-rule="evenodd" d="M22.4287 2.38529C22.4287 1.38722 23.2379 0.578125 24.2359 0.578125H31.4645C32.6512 0.578125 33.8262 0.811848 34.9224 1.26593C36.0187 1.72003 37.0147 2.3856 37.8538 3.22466C38.6928 4.06371 39.3584 5.05982 39.8125 6.15612C40.2666 7.25233 40.5003 8.42731 40.5003 9.61396C40.5003 10.8005 40.2666 11.9755 39.8125 13.0718C39.3584 14.1681 38.6928 15.1642 37.8538 16.0033C37.0147 16.8423 36.0187 17.5079 34.9224 17.962C33.8262 18.416 32.6512 18.6498 31.4645 18.6498H24.2359C23.2379 18.6498 22.4287 17.8406 22.4287 16.8426V2.38529ZM26.043 4.19245V15.0354H31.4645C32.1765 15.0354 32.8815 14.8952 33.5392 14.6228C34.197 14.3503 34.7947 13.9509 35.2981 13.4475C35.8015 12.9441 36.2009 12.3464 36.4733 11.6886C36.7458 11.0309 36.886 10.326 36.886 9.61396C36.886 8.90197 36.7458 8.19703 36.4733 7.53928C36.2009 6.88142 35.8015 6.28381 35.2981 5.78037C34.7947 5.27694 34.197 4.8776 33.5392 4.60514C32.8815 4.33269 32.1765 4.19245 31.4645 4.19245H26.043Z" fill="currentColor"/>
<path fill-rule="evenodd" clip-rule="evenodd" d="M31.4645 18.6497C30.7525 18.6497 30.0476 18.7899 29.3898 19.0624C28.7321 19.3349 28.1344 19.7341 27.6309 20.2376C27.1276 20.7411 26.7282 21.3387 26.4557 21.9965C26.1832 22.6543 26.043 23.3592 26.043 24.0712C26.043 24.7832 26.1832 25.4881 26.4557 26.1459C26.7282 26.8036 27.1276 27.4014 27.6309 27.9047C28.1344 28.4082 28.7321 28.8075 29.3898 29.08C30.0476 29.3524 30.7525 29.4927 31.4645 29.4927C32.1765 29.4927 32.8815 29.3524 33.5392 29.08C34.197 28.8075 34.7947 28.4082 35.2981 27.9047C35.8015 27.4014 36.2009 26.8036 36.4733 26.1459C36.7458 25.4881 36.886 24.7832 36.886 24.0712C36.886 23.3592 36.7458 22.6543 36.4733 21.9965C36.2009 21.3387 35.8015 20.7411 35.2981 20.2376C34.7947 19.7341 34.197 19.3349 33.5392 19.0624C32.8815 18.7899 32.1765 18.6497 31.4645 18.6497ZM28.0067 15.7232C29.1029 15.2691 30.2779 15.0354 31.4645 15.0354C32.6512 15.0354 33.8262 15.2691 34.9224 15.7232C36.0187 16.1773 37.0147 16.8429 37.8538 17.6819C38.6928 18.521 39.3584 19.517 39.8125 20.6134C40.2666 21.7096 40.5003 22.8846 40.5003 24.0712C40.5003 25.2578 40.2666 26.4327 39.8125 27.5291C39.3584 28.6254 38.6928 29.6214 37.8538 30.4605C37.0147 31.2995 36.0187 31.9651 34.9224 32.4192C33.8262 32.8733 32.6512 33.107 31.4645 33.107C30.2779 33.107 29.1029 32.8733 28.0067 32.4192C26.9104 31.9651 25.9143 31.2995 25.0752 30.4605C24.2362 29.6214 23.5706 28.6254 23.1165 27.5291C22.6625 26.4327 22.4287 25.2578 22.4287 24.0712C22.4287 22.8846 22.6625 21.7096 23.1165 20.6134C23.5706 19.517 24.2362 18.521 25.0752 17.6819C25.9143 16.8429 26.9104 16.1773 28.0067 15.7232Z" fill="currentColor"/>
<path fill-rule="evenodd" clip-rule="evenodd" d="M17.0065 33.107C15.5687 33.107 14.1897 33.6781 13.1729 34.6949C12.1563 35.7116 11.585 37.0906 11.585 38.5285C11.585 39.9664 12.1563 41.3453 13.1729 42.362C14.1897 43.3787 15.5687 43.95 17.0065 43.95C18.4444 43.95 19.8234 43.3787 20.8401 42.362C21.8568 41.3453 22.428 39.9664 22.428 38.5285V33.107H17.0065ZM10.6172 32.1392C12.3118 30.4447 14.6101 29.4927 17.0065 29.4927H24.2352C25.2332 29.4927 26.0423 30.3017 26.0423 31.2998V38.5285C26.0423 40.9249 25.0903 43.2232 23.3958 44.9178C21.7012 46.6123 19.403 47.5643 17.0065 47.5643C14.6101 47.5643 12.3118 46.6123 10.6172 44.9178C8.92269 43.2232 7.9707 40.9249 7.9707 38.5285C7.9707 36.132 8.92269 33.8337 10.6172 32.1392Z" fill="currentColor"/>
<path fill-rule="evenodd" clip-rule="evenodd" d="M17.0065 18.6497C15.5687 18.6497 14.1897 19.2208 13.1729 20.2376C12.1563 21.2544 11.585 22.6333 11.585 24.0712C11.585 25.5091 12.1563 26.8881 13.1729 27.9047C14.1897 28.9215 15.5687 29.4927 17.0065 29.4927H22.428V18.6497H17.0065ZM10.6172 17.6819C12.3118 15.9874 14.6101 15.0354 17.0065 15.0354H24.2352C25.2332 15.0354 26.0423 15.8444 26.0423 16.8426V31.2999C26.0423 32.2979 25.2332 33.107 24.2352 33.107H17.0065C14.6101 33.107 12.3118 32.155 10.6172 30.4605C8.92269 28.7659 7.9707 26.4677 7.9707 24.0712C7.9707 21.6748 8.92269 19.3764 10.6172 17.6819Z" fill="currentColor"/>
</svg>
