<svg width="24" height="24" viewBox="0 0 24 24" fill="currentColor" xmlns="http://www.w3.org/2000/svg">
<path d="M11.9928 0.529297C5.37163 0.529297 0 5.78984 0 12.2831C0 17.472 3.43268 21.8868 8.20108 23.4349C8.80431 23.5496 9.01975 23.1769 9.01975 22.8759C9.01975 22.6035 9.01975 21.8582 9.00539 20.8834C5.67325 21.5858 4.96948 19.3067 4.96948 19.3067C4.4237 17.945 3.63375 17.5866 3.63375 17.5866C2.54219 16.8556 3.71993 16.87 3.71993 16.87C4.92639 16.956 5.55835 18.0883 5.55835 18.0883C6.62119 19.8801 8.35907 19.3641 9.04847 19.063C9.16338 18.3033 9.46499 17.7873 9.8097 17.4863C7.1526 17.1853 4.35189 16.1819 4.35189 11.6811C4.35189 10.391 4.81149 9.34465 5.58707 8.52762C5.45781 8.22661 5.04129 7.03689 5.68761 5.41716C5.68761 5.41716 6.693 5.10181 8.99102 6.62121C9.95332 6.3632 10.9731 6.23419 11.9928 6.21986C13.0126 6.21986 14.0323 6.34886 14.9946 6.62121C17.2783 5.10181 18.2837 5.41716 18.2837 5.41716C18.93 7.03689 18.5278 8.22661 18.3986 8.52762C19.1598 9.34465 19.6338 10.4054 19.6338 11.6811C19.6338 16.1963 16.833 17.1853 14.1616 17.4863C14.5781 17.8447 14.9659 18.5614 14.9659 19.6651C14.9659 21.2418 14.9515 22.5032 14.9515 22.8902C14.9515 23.1912 15.167 23.5639 15.7702 23.4492C20.5673 21.9012 24 17.5006 24 12.3118C23.9856 5.78984 18.614 0.529297 11.9928 0.529297Z" fill="currentColor"/>
</svg>
