<svg width="48" height="48" viewBox="0 0 48 48" fill="currentColor" xmlns="http://www.w3.org/2000/svg">
<g clip-path="url(#clip0_781_124)">
<path d="M3.02214 1.58899L6.13744 41.4436C6.1842 42.0421 6.5893 42.5524 7.16157 42.7338L23.5543 47.9311C23.8442 48.023 24.1554 48.023 24.4453 47.9311L40.8381 42.7338C41.4104 42.5524 41.8155 42.0421 41.8622 41.4436L44.9775 1.58899C45.0445 0.732139 44.3673 0 43.5079 0H4.49184C3.63244 0 2.95525 0.732139 3.02214 1.58899ZM36.9886 13.9545H16.6856L17.2983 19.6048H36.547L35.2878 35.7128L23.9999 39.2916L12.712 35.7128L12.0541 27.2973H17.9789V31.4253L24.1582 33.0837L30.3006 31.4253L30.7771 24.8465H11.8625L10.6068 8.78069H37.3929L36.9886 13.9545Z" fill="currentColor"/>
</g>
<defs>
<clipPath id="clip0_781_124">
<rect width="48" height="48" fill="currentColor"/>
</clipPath>
</defs>
</svg>
