<svg width="48" height="48" viewBox="0 0 48 48" fill="currentColor" xmlns="http://www.w3.org/2000/svg">
<g clip-path="url(#clip0_781_143)">
<path fill-rule="evenodd" clip-rule="evenodd" d="M48 0H0V48H48V0ZM36.6936 40.2393C34.4688 40.2393 33.2109 39.0789 32.244 37.5003L28.5784 39.6297C29.9026 42.2461 32.6089 44.2423 36.7979 44.2423C41.082 44.2423 44.2722 42.0175 44.2722 37.9565C44.2722 34.1897 42.1084 32.5143 38.276 30.8708L37.1484 30.3878C35.2132 29.5497 34.3751 29.0019 34.3751 27.6487C34.3751 26.5539 35.2125 25.7158 36.5336 25.7158C37.8288 25.7158 38.6631 26.2621 39.4365 27.6487L42.9488 25.3935C41.4631 22.7801 39.4014 21.782 36.5336 21.782C32.5054 21.782 29.9279 24.3573 29.9279 27.7401C29.9279 31.4125 32.0901 33.1497 35.345 34.5364L36.4726 35.0202C38.5298 35.92 39.7564 36.4678 39.7564 38.0145C39.7564 39.3051 38.5625 40.2393 36.6936 40.2393ZM19.2132 40.2111C17.6635 40.2111 17.0189 39.1483 16.3103 37.8911L12.6387 40.1139C13.7024 42.365 15.7937 44.2339 19.4052 44.2339C23.4022 44.2339 26.1405 42.1082 26.1405 37.4377V22.0397H21.63V37.3769C21.63 39.6313 20.6951 40.2111 19.2132 40.2111Z" fill="currentColor"/>
</g>
<defs>
<clipPath id="clip0_781_143">
<rect width="48" height="48" fill="currentColor"/>
</clipPath>
</defs>
</svg>
