<svg width="24" height="24" viewBox="0 0 24 24" fill="currentColor" xmlns="http://www.w3.org/2000/svg">
<path fill-rule="evenodd" clip-rule="evenodd" d="M3.9975 1H20.0025C21.658 1 23 2.34203 23 3.9975V20.0025C23 21.658 21.658 23 20.0025 23H3.9975C2.34203 23 1 21.658 1 20.0025V3.9975C1 2.34203 2.34203 1 3.9975 1ZM7.05005 8.865C8.0813 8.865 8.92005 8.02625 8.92005 6.995C8.92005 5.96375 8.0813 5.125 7.05005 5.125C6.0188 5.125 5.18005 5.96375 5.18005 6.995C5.18005 8.02625 6.0188 8.865 7.05005 8.865ZM8.49418 10.1301V18.4076C8.49418 18.6688 8.28793 18.8751 8.02668 18.8751H6.04668C5.78543 18.8751 5.57918 18.6688 5.57918 18.4076V10.1163C5.57918 9.85505 5.78543 9.6488 6.04668 9.6488H8.02668C8.28793 9.6488 8.49418 9.85505 8.49418 10.1163V10.1301ZM18.8334 18.4484V14.4334V14.4197V14.3988C18.8334 12.6618 18.8335 9.51095 15.4509 9.51095C13.9246 9.51095 13.1959 10.0747 12.7146 10.8034V10.0747C12.7146 9.84095 12.5221 9.64845 12.2884 9.64845H10.2396C10.0059 9.64845 9.81339 9.84095 9.81339 10.0747V18.4347C9.81339 18.6684 10.0059 18.8609 10.2396 18.8609H12.2884C12.5221 18.8609 12.7146 18.6684 12.7146 18.4347V13.9522C12.7696 13.3609 13.0309 12.0134 14.3371 12.0134C15.8936 12.0134 15.8639 13.7062 15.8515 14.4117C15.8505 14.4666 15.8496 14.5155 15.8496 14.5572V18.4484C15.8496 18.6822 16.0421 18.8747 16.2759 18.8747H18.4071C18.6409 18.8747 18.8334 18.6822 18.8334 18.4484Z" fill="currentColor"/>
</svg>
