<svg width="25" height="24" viewBox="0 0 25 24" fill="currentColor" xmlns="http://www.w3.org/2000/svg">
<path d="M22.9432 16.9643L20.4728 14.4938C19.7906 13.8117 18.7103 13.7518 17.9597 14.3537C16.7139 15.3531 16.3522 15.3445 16.338 15.3433C15.2145 15.2142 13.4761 14.1204 11.9094 12.5561C10.3173 10.9665 9.25124 9.2726 9.1284 8.13797C9.12778 8.12316 9.12284 7.7645 10.1217 6.54592C10.739 5.7928 10.6846 4.70571 9.9951 4.01617L7.53511 1.55618C6.8357 0.856766 5.73811 0.811085 4.98129 1.44939C2.67068 3.39948 1.49902 4.86992 1.49902 5.81935C1.49902 9.32754 4.70782 13.7864 7.71043 16.789C10.713 19.7916 15.1719 23.0004 18.6801 23.0004C19.6295 23.0004 21.0999 21.8287 23.05 19.5181C23.6883 18.7619 23.6427 17.6637 22.9432 16.9643ZM22.3426 18.9206C20.3802 21.246 19.1641 22.0738 18.6801 22.0738C17.3232 22.0738 15.6127 21.4886 13.7342 20.3818C11.9495 19.3299 10.0926 17.8613 8.36478 16.1334C6.63692 14.4056 5.16833 12.5493 4.11643 10.764C3.00959 8.88554 2.42438 7.17497 2.42438 5.81811C2.42438 5.33414 3.25281 4.11803 5.57761 2.15559C5.75972 2.00188 5.9801 1.92595 6.19986 1.92595C6.44617 1.92595 6.69124 2.02102 6.87952 2.2093L9.33952 4.66929C9.69077 5.02054 9.71855 5.57427 9.40495 5.95762C8.27403 7.33732 8.17033 7.89907 8.20675 8.23489C8.52034 11.127 13.3206 15.9285 16.2318 16.2624C16.5683 16.3013 17.1349 16.2013 18.5387 15.0747C18.9202 14.7685 19.4702 14.7994 19.8178 15.1469L22.2883 17.6174C22.6451 17.9755 22.6679 18.5354 22.3426 18.9206Z" fill="currentColor"/>
</svg>
