<svg width="48" height="48" viewBox="0 0 48 48" fill="currentColor" xmlns="http://www.w3.org/2000/svg">
<g clip-path="url(#clip0_794_90)">
<path d="M21.0843 17.9905C21.4107 18.5028 21.581 19.1164 21.5595 19.7599C21.5595 20.6402 21.3598 21.3199 20.9398 21.8205C20.0128 22.9254 18.3703 23.2399 16.9995 23.2399H15.9402C15.7002 23.2399 15.4395 23.2202 15.1602 23.2005V16.4805C15.2998 16.4599 15.5802 16.4402 15.9795 16.4599C16.3602 16.4402 16.8195 16.4402 17.3398 16.4402C18.7181 16.4402 20.2915 16.7464 21.0843 17.9905Z" fill="currentColor"/>
<path d="M39.4997 0.600098H8.50031C3.79969 0.600098 0 4.39979 0 9.10041V38.8998C0 43.6004 3.79969 47.4001 8.50031 47.4001H39.4997C44.2003 47.4001 48 43.6004 48 38.8998V9.10041C48 4.39979 44.2003 0.600098 39.4997 0.600098ZM24.72 23.8998C23.9203 25.0201 22.8 25.8601 21.4997 26.3401C20.1403 26.8398 18.6403 27.0198 16.9997 27.0198C16.5197 27.0198 16.2 27.0198 16.0003 27.0001C15.7997 26.9804 15.5203 26.9804 15.1397 26.9804V33.4004C15.1603 33.5401 15.06 33.6601 14.9203 33.6798H11.04C10.8797 33.6798 10.8 33.6001 10.8 33.4201V12.8401C10.8 12.7004 10.86 12.6198 10.9997 12.6198C11.34 12.6198 11.6597 12.6198 12.12 12.6001C12.6 12.5804 13.0997 12.5804 13.6397 12.5598C14.1797 12.5401 14.76 12.5401 15.3797 12.5204C16.0003 12.4998 16.6003 12.4998 17.2003 12.4998C18.84 12.4998 20.2003 12.7004 21.3197 13.1204C22.32 13.4598 23.2397 14.0204 24 14.7601C24.6403 15.4004 25.14 16.1804 25.4597 17.0401C25.7597 17.8801 25.92 18.7398 25.92 19.6398C25.92 21.3601 25.5197 22.7804 24.72 23.8998ZM38.8997 31.6801C38.34 32.4798 37.56 33.1004 36.66 33.4604C35.6803 33.8804 34.4803 34.0998 33.0403 34.0998C32.1197 34.0998 31.2197 34.0201 30.3197 33.8401C29.6203 33.7201 28.92 33.4998 28.2797 33.1998C28.14 33.1201 28.0397 32.9804 28.0603 32.8201V29.3401C28.0603 29.2801 28.08 29.2004 28.14 29.1601C28.2 29.1198 28.26 29.1404 28.32 29.1798C29.1 29.6401 29.9203 29.9598 30.7997 30.1604C31.56 30.3601 32.3597 30.4604 33.1603 30.4604C33.9197 30.4604 34.4597 30.3601 34.8197 30.1801C35.1403 30.0404 35.3597 29.7001 35.3597 29.3401C35.3597 29.0598 35.2003 28.8001 34.8797 28.5404C34.56 28.2798 33.9 27.9798 32.9203 27.6001C31.9003 27.2401 30.96 26.7601 30.0797 26.1601C29.46 25.7204 28.9397 25.1401 28.56 24.4604C28.2403 23.8201 28.08 23.1198 28.0997 22.4204C28.0997 21.5598 28.3397 20.7404 28.7803 19.9998C29.28 19.2001 30.0197 18.5598 30.8803 18.1604C31.8197 17.6804 33 17.4601 34.4203 17.4601C35.2397 17.4601 36.0797 17.5201 36.9 17.6401C37.5 17.7198 38.0803 17.8801 38.6203 18.1004C38.7 18.1201 38.7797 18.1998 38.82 18.2804C38.8397 18.3601 38.8603 18.4398 38.8603 18.5204V21.7801C38.8603 21.8598 38.82 21.9404 38.76 21.9798C38.58 22.0201 38.4797 22.0201 38.4 21.9798C37.8 21.6601 37.1597 21.4398 36.48 21.3001C35.7403 21.1398 34.9997 21.0404 34.2403 21.0404C33.84 21.0198 33.42 21.0798 33.0403 21.1801C32.7797 21.2401 32.5603 21.3798 32.4197 21.5804C32.3203 21.7398 32.2603 21.9404 32.2603 22.1204C32.2603 22.3004 32.34 22.4804 32.46 22.6398C32.64 22.8601 32.88 23.0401 33.1397 23.1798C33.6 23.4198 34.08 23.6401 34.56 23.8398C35.64 24.1998 36.6797 24.7004 37.6397 25.3004C38.2997 25.7204 38.8397 26.2801 39.2203 26.9598C39.54 27.6001 39.7003 28.3004 39.6797 29.0204C39.7003 29.9598 39.42 30.9001 38.8997 31.6801Z" fill="currentColor"/>
</g>
<defs>
<clipPath id="clip0_794_90">
<rect width="48" height="48" fill="currentColor"/>
</clipPath>
</defs>
</svg>
