<svg width="48" height="48" viewBox="0 0 48 48" fill="currentColor" xmlns="http://www.w3.org/2000/svg">
<path d="M24.0368 19.0605C21.2999 19.0605 19.0635 21.2971 19.0635 24.0339C19.0635 26.7706 21.2999 29.0072 24.0368 29.0072C26.7736 29.0072 29.0101 26.7706 29.0101 24.0339C29.0101 21.2971 26.7736 19.0605 24.0368 19.0605Z" fill="currentColor"/>
<path d="M0.827148 24.0338C0.827148 25.5679 1.59829 26.9843 2.83947 28.1798C4.08073 29.3753 5.80542 30.3949 7.89861 31.2478C12.0851 32.9531 17.7649 33.9805 24.0361 33.9805C30.3072 33.9805 35.9872 32.9531 40.1735 31.2478C42.2668 30.3949 43.9914 29.3753 45.2326 28.1798C46.4738 26.9843 47.245 25.5679 47.245 24.0338C47.245 22.4998 46.4738 21.0817 45.2326 19.8861C43.9914 18.6905 42.2668 17.6709 40.1735 16.8182C35.9872 15.1128 30.3072 14.0872 24.0361 14.0872C17.7649 14.0872 12.0851 15.1128 7.89861 16.8182C5.80542 17.6709 4.08073 18.6905 2.83947 19.8861C1.59829 21.0817 0.827148 22.4998 0.827148 24.0338ZM2.48655 24.0338C2.48655 23.0504 2.96847 22.0682 3.99215 21.0824C5.01574 20.0965 6.56854 19.1532 8.52514 18.3563C12.4383 16.762 17.9476 15.7465 24.0361 15.7465C30.1245 15.7465 35.6338 16.762 39.547 18.3563C41.5036 19.1532 43.0564 20.0965 44.08 21.0824C45.1036 22.0682 45.5856 23.0504 45.5856 24.0338C45.5856 25.0172 45.1036 25.9975 44.08 26.9835C43.0564 27.9693 41.5036 28.9143 39.547 29.7114C35.6338 31.3055 30.1245 32.3195 24.0361 32.3195C17.9476 32.3195 12.4383 31.3055 8.52514 29.7114C6.56854 28.9143 5.01574 27.9693 3.99215 26.9835C2.96847 25.9975 2.48655 25.0172 2.48655 24.0338Z" fill="currentColor"/>
<path d="M36.1341 44.969C37.4704 44.1983 38.2916 42.7889 38.6748 41.076C39.058 39.363 39.0377 37.3029 38.6831 34.9925C37.9713 30.3718 35.8959 24.7378 32.6259 19.0799C29.356 13.422 25.5094 8.80941 21.8597 5.88327C20.0348 4.42011 18.259 3.3726 16.5824 2.84758C14.9058 2.32264 13.2735 2.32842 11.9373 3.09912C10.601 3.8699 9.78119 5.27834 9.398 6.99132C9.01488 8.7043 9.0351 10.7643 9.3897 13.0746C10.1016 17.6954 12.1769 23.3294 15.4469 28.9873C18.7169 34.6453 22.5634 39.2578 26.2132 42.1839C28.038 43.6471 29.8139 44.6946 31.4904 45.2196C33.167 45.7446 34.798 45.7397 36.1341 44.969ZM35.303 43.5309C34.4662 44.0136 33.3737 44.0706 31.9848 43.6357C30.5959 43.2008 28.9654 42.2654 27.2519 40.8915C23.8248 38.1439 20.0669 33.6652 16.8843 28.1584C13.7017 22.6515 11.698 17.1609 11.0295 12.8221C10.6953 10.6528 10.6997 8.77453 11.0171 7.35548C11.3346 5.9365 11.9301 5.01988 12.767 4.53713C13.6039 4.05455 14.6965 3.99755 16.0854 4.4323C17.4743 4.86722 19.1059 5.80196 20.8195 7.17567C24.2466 9.92336 28.0031 14.4028 31.1857 19.9097C34.3683 25.4165 36.3735 30.9063 37.0419 35.245C37.3762 37.4144 37.3704 39.2934 37.0527 40.7125C36.7352 42.1315 36.1399 43.0481 35.303 43.5309Z" fill="currentColor8"/>
<path d="M11.938 44.969C10.6018 44.1982 9.78061 42.7888 9.39733 41.0758C9.01413 39.3627 9.03369 37.3041 9.38903 34.9937C10.1009 30.3728 12.1771 24.7372 15.447 19.079C18.7171 13.421 22.5637 8.80829 26.2135 5.88198C28.0385 4.41882 29.8134 3.37263 31.49 2.84761C33.1667 2.32267 34.799 2.32836 36.1353 3.09915C37.4715 3.86985 38.2914 5.27838 38.6746 6.99145C39.0577 8.70443 39.0383 10.7632 38.6829 13.0736C37.9709 17.6945 35.8955 23.3286 32.6255 28.9868C29.3555 34.6448 25.508 39.2589 21.8582 42.1851C20.0333 43.6485 18.2582 44.6946 16.5817 45.2196C14.9051 45.7446 13.2743 45.7397 11.938 44.969ZM12.7691 43.5309C13.6061 44.0135 14.6978 44.0719 16.0867 43.6369C17.4757 43.2022 19.1069 42.2651 20.8205 40.8914C24.2476 38.1437 28.0056 33.6647 31.1883 28.1577C34.3709 22.6507 36.3739 17.1615 37.0423 12.8226C37.3765 10.6531 37.3729 8.77343 37.0554 7.35429C36.7381 5.93523 36.1424 5.01869 35.3056 4.53594C34.4687 4.05328 33.3763 3.9962 31.9874 4.43112C30.5984 4.86604 28.9656 5.80204 27.252 7.176C23.8249 9.92369 20.0693 14.4019 16.8867 19.9089C13.704 25.416 11.6987 30.9058 11.0302 35.2447C10.696 37.4141 10.701 39.2946 11.0187 40.7137C11.3361 42.1327 11.9322 43.0481 12.7691 43.5309Z" fill="currentColor"/>
</svg>
