<svg width="48" height="48" viewBox="0 0 48 48" fill="currentColor" xmlns="http://www.w3.org/2000/svg">
<g clip-path="url(#clip0_781_134)">
<path fill-rule="evenodd" clip-rule="evenodd" d="M47.9001 26.1982C47.9667 25.4743 48 24.7416 48 24C48 10.7452 37.2548 0 24 0C10.7452 0 0 10.7452 0 24C0 28.9341 1.48886 33.5214 4.04258 37.3349C4.26488 36.3888 4.74196 35.5366 5.44427 34.7774C6.87161 33.2365 8.62014 32.1276 10.4293 31.1048C10.7578 30.919 11.0931 30.7464 11.4283 30.5739C11.5509 30.5107 11.6736 30.4476 11.7958 30.3838L11.7986 30.3824C12.1867 30.1791 12.1879 30.1785 11.8566 29.9127C11.0975 29.3027 10.2943 28.7532 9.49114 28.2036C9.05475 27.9051 8.61835 27.6065 8.18899 27.2982C6.67061 26.2089 5.19827 25.0687 3.99827 23.6208C3.20477 22.6648 2.60139 21.6048 2.32511 20.3803C2.10958 19.4292 2.34077 18.5249 2.66205 17.6453C3.41439 15.5911 4.74958 13.9365 6.30321 12.4368C8.05858 10.7422 10.06 9.38928 12.1837 8.20794C14.2565 7.05397 16.4223 6.10475 18.6646 5.33188C20.1301 4.82741 21.6357 4.51194 23.1766 4.32781C24.9477 4.11622 26.7011 4.17106 28.437 4.55703C29.9956 4.90475 31.4483 5.48366 32.6189 6.63472C33.6034 7.60447 34.058 8.79763 34.1021 10.1485C34.1707 12.2781 33.3928 14.1393 32.1644 15.8281C30.1092 18.6533 27.2938 20.302 23.9329 21.1052C22.4429 21.4618 20.9373 21.6557 19.4081 21.6253C17.8457 21.595 16.3577 21.2952 15.1018 20.2735C14.6189 19.8816 14.2065 19.433 13.9861 18.8383C13.9519 18.7462 13.9254 18.6482 13.9136 18.5513C13.898 18.4102 13.8852 18.2633 14.0508 18.1829C14.2124 18.1046 14.3329 18.182 14.428 18.2937C15.2517 19.2635 16.3645 19.6661 17.5685 19.8493C18.6176 20.0089 19.6648 19.9021 20.7081 19.7248C22.5958 19.4046 24.3796 18.7933 26.0332 17.8303C28.0189 16.6735 29.6989 15.1963 30.7558 13.1107C31.2289 12.1771 31.4846 11.1926 31.3132 10.1268C31.1672 9.21678 30.65 8.59672 29.8692 8.16763C28.7662 7.56125 27.5643 7.34675 26.3261 7.29875C23.2002 7.17828 20.2654 7.97666 17.4363 9.21585C14.9099 10.3237 12.5129 11.6697 10.3274 13.3644C8.95118 14.4322 7.70318 15.6312 6.86168 17.1838C6.15049 18.4964 5.83108 19.8777 6.25821 21.3608C6.51977 22.2678 7.0429 23.0192 7.6698 23.7049C8.5619 24.6793 9.60163 25.4802 10.6415 26.2811C10.852 26.4433 11.0625 26.6054 11.2718 26.769C11.3287 26.8135 11.3857 26.8579 11.4427 26.9024C12.2758 27.5518 13.109 28.2014 13.8334 28.978C13.9549 29.1083 14.0636 29.1347 14.2321 29.0407C15.7691 28.1934 17.309 27.3538 18.8499 26.5143C18.989 26.4389 19.0859 26.3263 19.1819 26.2038C20.0029 25.1518 20.9795 24.2848 22.1942 23.7098C22.7154 23.4629 23.2669 23.2934 23.8497 23.4022C24.648 23.5512 25.1066 24.1948 25.1555 25.1841C25.1771 25.6278 25.1497 26.0715 25.087 26.577C25.5463 26.2352 25.9686 26.2469 26.3927 26.4909C26.6876 26.6613 26.8423 26.9004 26.7503 27.256C26.6686 27.5708 26.5864 27.8855 26.5041 28.2001C26.2625 29.1242 26.021 30.0482 25.7951 30.9755C25.7745 31.0603 25.7535 31.145 25.7325 31.2298C25.5589 31.9309 25.3846 32.6346 25.4239 33.3687C25.4252 33.3945 25.4238 33.4229 25.4225 33.4519C25.4176 33.5528 25.4124 33.6604 25.519 33.687C25.6289 33.7149 25.6792 33.6067 25.7232 33.5121C25.7332 33.4904 25.743 33.4694 25.753 33.451C26.4669 32.151 27.0685 30.7976 27.6703 29.4436C27.7143 29.3446 27.7583 29.2456 27.8023 29.1466C28.1267 28.4171 28.4504 27.6871 28.774 26.9573C29.1921 26.0142 29.6103 25.0712 30.0299 24.1291C30.2984 23.5257 30.4973 22.8988 30.6246 22.2532C30.6902 21.9231 30.8822 21.7585 31.1761 21.6772C31.8296 21.494 32.4976 21.4862 33.1676 21.5391C33.294 21.5489 33.4233 21.6028 33.5389 21.6606C33.7995 21.7909 33.8916 21.978 33.7809 22.2797C33.4527 23.1761 33.154 24.0822 33.202 25.0569C33.25 26.0443 33.4645 26.9857 34.0336 27.838C34.1853 27.6803 34.2891 27.4912 34.3925 27.303C34.4246 27.2445 34.4566 27.1861 34.4901 27.1288C35.2757 25.7848 36.0417 24.4309 36.7157 23.0252C36.9383 22.5602 37.0667 22.0717 37.1956 21.5815C37.2249 21.4698 37.2543 21.358 37.2849 21.2463C37.5621 20.2324 37.6649 20.1423 38.7092 20.0355C39.1108 19.9944 39.5242 19.9904 39.9249 20.0316C40.4755 20.0894 40.7889 20.3138 40.5479 20.9495C40.2461 21.7489 40.0061 22.5639 40.0248 23.4406C40.0474 24.4623 40.309 25.4018 40.8007 26.2951C40.9956 26.6503 41.0843 26.8243 41.2189 26.8739C41.3501 26.9222 41.5248 26.8522 41.8841 26.7163C43.8727 25.9611 45.8848 25.7054 47.8999 26.198C47.8489 26.7711 47.7764 27.3373 47.6844 27.8967C47.5101 27.8585 47.3337 27.8251 47.1554 27.7958C45.5802 27.5391 44.0129 27.5587 42.4681 28.025L42.4334 28.0355C41.7617 28.2384 41.7614 28.2385 41.9617 28.9311C42.4818 30.7208 41.995 32.0031 40.3346 33.2188C39.5725 33.7761 38.7232 34.1493 37.8072 34.3688C36.9285 34.5804 36.2389 34.0495 36.236 33.1483C36.233 32.3381 36.5093 31.5995 36.9129 30.9079C37.4311 30.0193 38.0913 29.2436 38.874 28.5784C39.1013 28.3864 39.1835 28.2405 39.019 27.9535C38.4194 26.9043 38.1001 25.7553 37.863 24.5798C37.8547 24.5382 37.8422 24.4973 37.8266 24.4464C37.8183 24.4194 37.8092 24.3897 37.7994 24.3554C37.645 24.5317 37.5536 24.7255 37.4649 24.9136C37.4308 24.9858 37.3972 25.0571 37.3605 25.1263C36.615 26.5448 35.804 27.923 34.8861 29.2377C34.791 29.3748 34.794 29.4806 34.8577 29.6265C35.1466 30.2839 35.3406 30.9725 35.3573 31.6896C35.3936 33.2657 34.6078 34.3727 33.2825 35.128C32.2979 35.6883 31.241 36.0302 30.0958 36.0439C29.8891 36.0469 29.6765 36.0342 29.4747 35.991C28.8193 35.8509 28.5931 35.2191 28.9869 34.6019C29.3222 34.078 29.7257 33.6066 30.129 33.1354C30.2535 32.9899 30.3779 32.8445 30.5004 32.6976C30.5879 32.5927 30.6756 32.488 30.7633 32.3833C31.2949 31.7486 31.8265 31.114 32.3175 30.4455C32.486 30.2154 32.5007 30.0498 32.3675 29.8098C31.7464 28.6902 31.3173 27.499 31.0764 26.2402C31.0652 26.1831 31.0537 26.1261 31.0406 26.0616C31.025 25.9843 31.0071 25.8963 30.9852 25.7847C30.9158 25.9502 30.8482 26.1113 30.7819 26.2691C30.5983 26.7061 30.4252 27.1179 30.2554 27.5303C29.171 30.1723 27.8613 32.7026 26.4497 35.1799C26.1206 35.7559 25.6975 36.2868 25.0764 36.6091C24.4876 36.9148 23.8538 36.7483 23.5168 36.1762C23.2367 35.7001 23.1505 35.1682 23.1299 34.6294C23.1093 34.0828 23.1073 33.5342 23.1456 32.9719C23.0831 33.1137 23.0214 33.2558 22.9598 33.3978C22.8181 33.7238 22.6766 34.0497 22.5265 34.3718C22.4994 34.4299 22.4725 34.488 22.4455 34.5462C22.0808 35.3325 21.7173 36.1163 21.1873 36.8169C20.5879 37.6093 19.1116 37.7083 18.4504 36.8404C17.8078 35.9969 17.4699 35.038 17.2671 34.0192C16.9408 32.3833 17.2396 30.7963 17.6687 29.2221C17.6754 29.1974 17.6841 29.1731 17.693 29.1483C17.7209 29.0707 17.751 28.9873 17.7265 28.8656C17.5298 28.9785 17.3346 29.0906 17.1403 29.202C16.5952 29.5147 16.0583 29.8228 15.5224 30.1341C15.4759 30.1609 15.425 30.1861 15.3737 30.2116C15.2266 30.2846 15.0762 30.3592 15.016 30.4769C14.9598 30.5881 15.0322 30.7085 15.1067 30.8326C15.1479 30.901 15.1896 30.9705 15.2109 31.0402C15.5537 32.153 15.6723 33.2816 15.5596 34.4473C15.4313 35.7698 15.0904 37.0236 14.3625 38.1315C12.855 40.4256 10.8145 41.8127 8.14913 42.0205C8.14916 42.0205 8.14919 42.0205 8.14922 42.0205C12.3772 45.7431 17.9245 48 24 48C35.9275 48 45.8233 39.2983 47.6845 27.8969C47.7766 27.3375 47.8492 26.7713 47.9001 26.1982ZM7.85308 39.5079C8.32924 39.5451 8.79452 39.4775 9.24218 39.3188C11.6138 38.4793 13.5298 35.9137 13.4474 33.2757C13.4788 32.8359 13.3946 32.351 13.3005 31.8671C13.2281 31.4899 13.2232 31.4879 12.9068 31.676C11.8626 32.298 10.83 32.9378 9.86908 33.6871C8.88058 34.4571 7.91177 35.2417 7.33483 36.3976C7.01749 37.0344 6.8029 37.6888 6.84602 38.4136C6.88427 39.0426 7.26039 39.4608 7.85308 39.5079ZM22.7037 29.2338C23.0906 28.1877 23.4541 27.1288 23.6206 26.0169C23.6862 25.5859 23.4933 25.4174 23.0751 25.524C22.4589 25.6818 21.9936 26.0746 21.6292 26.5575C20.3254 28.2904 19.5339 30.2183 19.5191 32.5771C19.5304 32.6808 19.5372 32.7931 19.5444 32.9114C19.5699 33.3297 19.6 33.8231 19.8444 34.2767C20.005 34.5746 20.2107 34.603 20.4429 34.359C20.6887 34.1014 20.8483 33.787 21.0002 33.4706C21.6063 32.2154 22.0872 30.9088 22.5678 29.603C22.6131 29.4799 22.6583 29.3568 22.7037 29.2338ZM30.8706 34.7333C31.6601 34.3336 32.3037 33.7723 32.7505 33.0004C32.9522 32.6527 33.0462 32.2746 33.0531 31.8445C33.0295 31.8545 33.011 31.8609 32.9967 31.8659C32.9749 31.8734 32.9627 31.8777 32.9561 31.8866C32.2577 32.8162 31.4829 33.6802 30.6982 34.5373C30.687 34.5498 30.6729 34.5624 30.6583 34.5755C30.6043 34.6237 30.5442 34.6776 30.6012 34.7509C30.6692 34.8388 30.7626 34.7898 30.8417 34.7482C30.8516 34.743 30.8612 34.738 30.8706 34.7333ZM38.1058 32.9991C38.1271 32.9878 38.1481 32.9767 38.1686 32.9671C39.2314 32.4666 39.8437 31.6643 39.8534 30.4584C39.8495 30.238 39.8446 30.0215 39.7907 29.805C39.7388 29.5934 39.6702 29.5758 39.5174 29.7227C39.1384 30.0891 38.7935 30.4819 38.5153 30.9315C38.1843 31.4654 37.9443 32.0385 37.766 32.637C37.7277 32.7683 37.6779 32.9398 37.8032 33.0367C37.8969 33.1094 38.0053 33.0521 38.1058 32.9991Z" fill="currentColor"/>
</g>
<defs>
<clipPath id="clip0_781_134">
<rect width="48" height="48" fill="currentColor"/>
</clipPath>
</defs>
</svg>
