<svg width="25" height="24" viewBox="0 0 25 24" fill="none" xmlns="http://www.w3.org/2000/svg">
<g clip-path="url(#clip0_823_299)">
<path d="M12.503 0H12.497C5.8805 0 0.5 5.382 0.5 12C0.5 14.625 1.346 17.058 2.7845 19.0335L1.289 23.4915L5.9015 22.017C7.799 23.274 10.0625 24 12.503 24C19.1195 24 24.5 18.6165 24.5 12C24.5 5.3835 19.1195 0 12.503 0Z" fill="#4CAF50"/>
<path d="M19.4858 16.9455C19.1963 17.763 18.0473 18.441 17.1308 18.639C16.5038 18.7725 15.6848 18.879 12.9278 17.736C9.40132 16.275 7.13032 12.6915 6.95332 12.459C6.78382 12.2265 5.52832 10.5615 5.52832 8.83953C5.52832 7.11753 6.40282 6.27903 6.75532 5.91903C7.04482 5.62353 7.52332 5.48853 7.98232 5.48853C8.13082 5.48853 8.26432 5.49603 8.38432 5.50203C8.73682 5.51703 8.91382 5.53803 9.14632 6.09453C9.43582 6.79203 10.1408 8.51403 10.2248 8.69103C10.3103 8.86803 10.3958 9.10803 10.2758 9.34053C10.1633 9.58053 10.0643 9.68703 9.88732 9.89103C9.71032 10.095 9.54232 10.251 9.36532 10.47C9.20332 10.6605 9.02032 10.8645 9.22432 11.217C9.42832 11.562 10.1333 12.7125 11.1713 13.6365C12.5108 14.829 13.5968 15.21 13.9853 15.372C14.2748 15.492 14.6198 15.4635 14.8313 15.2385C15.0998 14.949 15.4313 14.469 15.7688 13.9965C16.0088 13.6575 16.3118 13.6155 16.6298 13.7355C16.9538 13.848 18.6683 14.6955 19.0208 14.871C19.3733 15.048 19.6058 15.132 19.6913 15.2805C19.7753 15.429 19.7753 16.1265 19.4858 16.9455Z" fill="#FAFAFA"/>
</g>
<defs>
<clipPath id="clip0_823_299">
<rect width="24" height="24" fill="white" transform="translate(0.5)"/>
</clipPath>
</defs>
</svg>
