<svg width="48" height="48" viewBox="0 0 48 48" fill="currentColor" xmlns="http://www.w3.org/2000/svg">
<g clip-path="url(#clip0_794_82)">
<path d="M39.5008 0.600098H8.50015C3.80524 0.600098 0 4.40534 0 9.10024V38.9009C0 43.5949 3.80524 47.4001 8.50015 47.4001H39.5008C44.1948 47.4001 48 43.5949 48 38.9009V9.10024C48 4.40534 44.1948 0.600098 39.5008 0.600098ZM25.6842 33.532C25.6626 33.6079 25.5876 33.5601 25.4592 33.5816H20.8862C20.5646 33.5816 20.3396 33.5695 20.2102 33.3548C19.7809 32.5176 19.3515 31.6861 18.9221 30.8592C18.4928 30.0333 18.0362 29.1905 17.5543 28.3317C17.0706 27.4739 16.5934 26.604 16.1209 25.7237H16.0891C15.6588 26.5824 15.2135 27.4411 14.7522 28.2999C14.291 29.1586 13.8344 30.0117 13.3835 30.8592C12.9335 31.7076 12.4713 32.5504 11.9998 33.3876C11.9135 33.5807 11.7626 33.6004 11.5488 33.6004H7.13705C7.05174 33.6004 7.00299 33.6341 6.99174 33.5479C6.98049 33.4701 6.99736 33.3895 7.04049 33.3229L13.2551 23.1156L7.20173 12.8755C7.13705 12.7902 7.12674 12.7208 7.16892 12.6664C7.21767 12.6111 7.28892 12.5811 7.36204 12.5858H11.9023C12.0016 12.5802 12.101 12.5971 12.1929 12.6346C12.2698 12.6777 12.3354 12.7386 12.386 12.8117C12.7722 13.6705 13.2016 14.5292 13.6741 15.387C14.1457 16.2457 14.6228 17.0942 15.1066 17.9313C15.5894 18.7685 16.0347 19.616 16.4425 20.4747H16.4753C16.9047 19.5954 17.3387 18.7366 17.7793 17.8994C18.219 17.0613 18.6699 16.2195 19.1312 15.3711C19.5934 14.5236 20.0387 13.6808 20.468 12.8436C20.4924 12.7639 20.5374 12.6917 20.5965 12.6346C20.6762 12.5942 20.7652 12.5774 20.8543 12.5858H25.0729C25.1714 12.5614 25.2717 12.6224 25.2961 12.7208C25.3129 12.7902 25.2886 12.8634 25.2333 12.9083L19.2446 22.7931L25.6523 33.291C25.6936 33.3641 25.7048 33.4504 25.6842 33.532ZM40.818 32.7435C39.7717 33.1795 38.6814 33.5038 37.5658 33.7091C36.5458 33.8976 35.5118 33.9941 34.475 33.9988C32.9928 34.0213 31.5238 33.7138 30.1757 33.0979C28.9204 32.5167 27.8704 31.567 27.1654 30.3764C26.4351 29.1642 26.0704 27.6455 26.0704 25.8202C26.0582 24.3428 26.436 22.8878 27.1654 21.6016C27.9163 20.2928 29.0216 19.2213 30.3528 18.5107C31.7478 17.7382 33.4334 17.352 35.4087 17.352C35.5156 17.352 35.6552 17.3566 35.8268 17.3679C35.9984 17.3791 36.2027 17.3951 36.439 17.4157V11.0727C36.439 10.9227 36.5037 10.8468 36.6321 10.8468H40.6895C40.7823 10.8336 40.8695 10.8983 40.8826 10.9921C40.8845 11.008 40.8845 11.024 40.8826 11.0399V30.0708C40.8826 30.4364 40.8986 30.8329 40.9305 31.2623C40.9633 31.6917 40.9895 32.0779 41.0111 32.421C41.0195 32.5579 40.9426 32.6863 40.818 32.7435ZM35.2474 21.0869C34.4665 21.0794 33.694 21.2556 32.9937 21.6016C32.3112 21.9409 31.7291 22.4519 31.3035 23.0828C30.8628 23.7268 30.6425 24.5753 30.6425 25.6271C30.6275 26.3293 30.7419 27.0277 30.981 27.6877C31.176 28.2202 31.4834 28.703 31.8828 29.1042C32.2653 29.4745 32.7275 29.7492 33.2347 29.9095C33.7709 30.083 34.3306 30.1701 34.8931 30.1673C35.194 30.1673 35.4724 30.1561 35.7302 30.1355C35.9702 30.1167 36.2084 30.0736 36.439 30.0061V21.2153C36.2646 21.1684 36.0874 21.1366 35.9074 21.1188C35.6881 21.0972 35.4677 21.0859 35.2474 21.0869Z" fill="currentColor"/>
</g>
<defs>
<clipPath id="clip0_794_82">
<rect width="48" height="48" fill="currentColor"/>
</clipPath>
</defs>
</svg>
